# Blender v2.77 (sub 0) OBJ File: 'bumpbricks.blend'
# www.blender.org
mtllib box.mtl
o Cube
v 1.000000 -1.000000 -1.000000
v 1.000000 -1.000000 1.000000
v -1.000000 -1.000000 1.000000
v -1.000000 -1.000000 -1.000000
v 1.000000 1.000000 -1.000000
v -1.000000 1.000000 -1.000000
v -1.000000 1.000000 1.000000
v 0.999999 1.000000 1.000001
vt 0.4174 0.2845
vt 0.2791 0.4228
vt 0.1408 0.2845
vt 0.2791 0.1462
vt 0.9931 0.9985
vt 0.5557 0.9985
vt 0.5557 0.5611
vt 0.9931 0.5611
vt 0.5557 0.4228
vt 0.4174 0.5611
vt 0.1408 0.5611
vt 0.0025 0.4228
vt 0.0025 0.1462
vt 0.1408 0.0079
vt 0.5557 0.1462
vt 0.4174 0.0079
vn 0.0000 -1.0000 -0.0000
vn 0.0000 1.0000 0.0000
vn 1.0000 0.0000 0.0000
vn -0.0000 -0.0000 1.0000
vn -1.0000 0.0000 0.0000
vn 0.0000 0.0000 -1.0000
usemtl Material.002
s off
f 1/1/1 2/2/1 3/3/1
f 1/1/1 3/3/1 4/4/1
f 5/5/2 6/6/2 7/7/2
f 5/5/2 7/7/2 8/8/2
f 1/1/3 5/9/3 8/10/3
f 1/1/3 8/10/3 2/2/3
f 2/2/4 8/11/4 7/12/4
f 2/2/4 7/12/4 3/3/4
f 3/3/5 7/13/5 6/14/5
f 3/3/5 6/14/5 4/4/5
f 5/15/6 1/1/6 4/4/6
f 5/15/6 4/4/6 6/16/6
