# Blender v2.77 (sub 0) OBJ File: 'skybox.blend'
# www.blender.org
mtllib skybox.mtl
o Cube
v 1.000000 -1.000000 -1.000000
v 1.000000 -1.000000 1.000000
v -1.000000 -1.000000 1.000000
v -1.000000 -1.000000 -1.000000
v 1.000000 1.000000 -0.999999
v 0.999999 1.000000 1.000001
v -1.000000 1.000000 1.000000
v -1.000000 1.000000 -1.000000
vt 0.4955 0.0015
vt 0.2517 0.3266
vt 0.4955 0.3266
vt 0.2517 0.9968
vt 0.4955 0.6718
vt 0.4955 0.9968
vt 0.7497 0.6661
vt 0.5059 0.3410
vt 0.7497 0.3410
vt 0.4970 0.6641
vt 0.2532 0.3390
vt 0.4970 0.3390
vt 0.2490 0.3410
vt -0.0017 0.6661
vt -0.0017 0.3410
vt 0.7497 0.3405
vt 0.9989 0.6656
vt 0.7497 0.6656
vt 0.2517 0.0015
vt 0.2517 0.6718
vt 0.5059 0.6661
vt 0.2532 0.6641
vt 0.2490 0.6661
vt 0.9989 0.3405
vn 0.0000 -1.0000 0.0000
vn 0.0000 1.0000 0.0000
vn 1.0000 -0.0000 0.0000
vn 0.0000 -0.0000 1.0000
vn -1.0000 -0.0000 -0.0000
vn 0.0000 0.0000 -1.0000
usemtl skybox
s off
f 2/1/1 4/2/1 1/3/1
f 8/4/2 6/5/2 5/6/2
f 5/7/3 2/8/3 1/9/3
f 6/10/4 3/11/4 2/12/4
f 3/13/5 8/14/5 4/15/5
f 1/16/6 8/17/6 5/18/6
f 2/1/1 3/19/1 4/2/1
f 8/4/2 7/20/2 6/5/2
f 5/7/3 6/21/3 2/8/3
f 6/10/4 7/22/4 3/11/4
f 3/13/5 7/23/5 8/14/5
f 1/16/6 4/24/6 8/17/6
